#!OML:ASF H:\Terrain\Patient Classification 1\Takeo\Monday\TakeoMonday.ASF
:FULLY-SPECIFIED
:DEGREES
331
root 10.4281 17.7998 -0.37772 -7.37317 -21.0646 -1.06954
lowerback 3.38036 -1.46974 -1.20669
upperback 3.32475 -1.99473 -0.357542
thorax 1.54528 -1.02422 0.34739
lowerneck -5.22816 -2.37172 -0.179752
upperneck 36.8732 -5.35616 3.57026
head 13.4047 -2.14984 0.733077
rclavicle -6.29744e-015 -1.98785e-015
rhumerus -25.8105 45.4015 -69.6795
rradius 143.549
rwrist -39.7384
rhand -16.9565 20.7001
rfingers 7.12502
rthumb 9.27734 -9.07581
lclavicle -6.29744e-015 -1.98785e-015
lhumerus -37.1721 17.508 79.2342
lradius 36.8143
lwrist 32.0279
lhand -20.5575 22.9404
lfingers 7.12502
lthumb 5.8016 52.841
rfemur 4.31816 7.85946 19.7867
rtibia 16.1254
rfoot -9.74628 -9.42612
rtoes -2.18525
lfemur 6.80611 4.29933 -20.8455
ltibia 19.3439
lfoot -20.4443 24.8668
ltoes 6.26449
332
root 10.4257 17.7952 -0.3699 -7.37836 -21.3294 -1.21529
lowerback 3.44968 -1.39119 -1.11851
upperback 3.29728 -1.89054 -0.228661
thorax 1.47808 -0.971411 0.430617
lowerneck -5.09354 -2.41642 -0.610888
upperneck 36.7835 -5.46788 3.94971
head 13.3656 -2.21523 0.948102
rclavicle -3.0018e-014 -6.75868e-015
rhumerus -26.0671 45.4974 -69.7548
rradius 143.547
rwrist -39.4107
rhand -16.8952 20.9562
rfingers 7.12502
rthumb 9.33646 -8.81701
lclavicle -3.0018e-014 -6.75868e-015
lhumerus -37.2773 17.57 79.3003
lradius 36.953
lwrist 32.0547
lhand -20.4566 23.0768
lfingers 7.12502
lthumb 5.89901 52.9747
rfemur 4.40869 7.99747 19.9672
rtibia 16.0395
rfoot -9.7062 -9.3888
rtoes -1.51833
lfemur 6.8849 4.21676 -20.7281
ltibia 19.4537
lfoot -20.8599 24.954
ltoes 8.17605
333
root 10.4212 17.7916 -0.367483 -7.55879 -21.4677 -0.989462
lowerback 3.56391 -1.36312 -1.43468
upperback 3.3033 -1.86175 -0.261726
thorax 1.42943 -0.962666 0.575889
lowerneck -4.90597 -2.4668 -0.690804
upperneck 36.5758 -5.56419 4.0979
head 13.2433 -2.25797 1.01071
rclavicle 2.94683e-015 2.00773e-014
rhumerus -26.3748 45.7355 -70.1717
rradius 143.358
rwrist -38.7647
rhand -16.9828 21.1826
rfingers 7.12502
rthumb 9.25193 -8.59446
lclavicle 2.94683e-015 2.00773e-014
lhumerus -37.229 17.6431 79.2138
lradius 36.9093
lwrist 32.0515
lhand -20.1383 22.6894
lfingers 7.12502
lthumb 6.20633 52.5785
rfemur 4.58091 8.23282 19.789
rtibia 15.9021
rfoot -9.68509 -9.43682
rtoes -0.616277
lfemur 6.90768 4.33043 -20.961
ltibia 19.6821
lfoot -20.9047 25.0838
ltoes 7.79375
334
root 10.423 17.7898 -0.367381 -7.5074 -21.58 -1.15679
lowerback 3.73671 -1.36153 -1.35321
upperback 3.23253 -1.86182 -0.144194
thorax 1.26138 -0.961027 0.656721
lowerneck -4.70178 -2.56289 -0.812711
upperneck 36.2513 -5.67853 4.16087
head 13.0646 -2.3256 1.04457
rclavicle -7.01834e-014 5.96354e-015
rhumerus -26.9297 46.1568 -70.5995
rradius 142.96
rwrist -37.8421
rhand -17.2814 22.0424
rfingers 7.12502
rthumb 8.96384 -7.74722
lclavicle -7.01834e-014 5.96354e-015
lhumerus -37.2535 17.7353 79.2752
lradius 36.8894
lwrist 31.9518
lhand -20.1711 22.1019
lfingers 7.12502
lthumb 6.17461 51.9919
rfemur 4.69142 8.30807 19.9751
rtibia 15.7022
rfoot -9.51721 -9.42387
rtoes -1.4136
lfemur 6.79997 4.61493 -20.7449
ltibia 19.9708
lfoot -20.855 25.0042
ltoes 6.21628
335
root 10.4321 17.7879 -0.364498 -7.347 -21.7746 -1.69766
lowerback 3.96035 -1.38057 -0.923173
upperback 3.23614 -1.88115 0.183013
thorax 1.13753 -0.96613 0.758058
lowerneck -4.87949 -2.66731 -1.17107
upperneck 36.1296 -5.77267 4.20121
head 13.064 -2.40671 1.10847
rclavicle -5.70729e-014 -3.77691e-015
rhumerus -27.3054 46.5003 -70.5964
rradius 142.665
rwrist -37.0341
rhand -17.2847 22.7753
rfingers 7.12502
rthumb 8.96059 -7.01442
lclavicle -5.70729e-014 -3.77691e-015
lhumerus -37.3387 18.0011 79.5704
lradius 37.1059
lwrist 31.8135
lhand -20.4408 21.7487
lfingers 7.12502
lthumb 5.91422 51.6461
rfemur 4.82961 8.29311 20.5184
rtibia 15.4749
rfoot -9.25012 -9.29716
rtoes -3.08871
lfemur 6.74594 4.7365 -20.1724
ltibia 20.242
lfoot -21.1081 24.9303
ltoes 5.8899
336
root 10.4381 17.791 -0.361852 -7.27785 -22.0449 -2.02794
lowerback 3.94957 -1.32224 -0.383375
upperback 3.38428 -1.78968 0.183298
thorax 1.27711 -0.911962 0.451312
lowerneck -4.96405 -2.74281 -0.982127
upperneck 35.989 -5.88012 4.12604
head 13.0154 -2.43764 1.02988
rclavicle 3.98967e-014 -1.53064e-014
rhumerus -27.5671 46.1481 -70.6829
rradius 142.661
rwrist -36.9274
rhand -16.7735 22.0469
rfingers 7.12502
rthumb 9.45391 -7.7211
lclavicle 3.98967e-014 -1.53064e-014
lhumerus -37.0624 17.4244 79.7952
lradius 37.0883
lwrist 32.0806
lhand -20.8802 20.8045
lfingers 7.12502
lthumb 5.49006 50.7134
rfemur 4.8661 8.34841 20.8617
rtibia 15.4139
rfoot -9.0482 -9.16508
rtoes -3.99932
lfemur 6.76403 4.76085 -19.8415
ltibia 20.3492
lfoot -21.0503 25.1671
ltoes 5.06862
337
root 10.4393 17.7962 -0.357394 -7.36127 -22.2363 -1.88997
lowerback 3.38468 -1.23741 -0.170782
upperback 3.79501 -1.67018 -0.0797431
thorax 2.0003 -0.846624 0.0396436
lowerneck -4.83395 -2.78662 -0.597863
upperneck 35.5441 -6.00063 4.21493
head 12.7895 -2.43781 0.982395
rclavicle 7.91411e-014 -7.95139e-015
rhumerus -27.2417 45.6535 -70.6407
rradius 142.272
rwrist -36.5681
rhand -16.9395 21.5267
rfingers 7.12502
rthumb 9.29375 -8.24849
lclavicle 7.91411e-014 -7.95139e-015
lhumerus -36.1444 16.5552 80.008
lradius 36.6901
lwrist 32.3452
lhand -21.6503 21.1804
lfingers 7.12502
lthumb 4.74643 51.1072
rfemur 4.78253 8.38034 20.7117
rtibia 15.5741
rfoot -8.99626 -9.03362
rtoes -3.98465
lfemur 6.87785 4.98801 -19.9708
ltibia 20.2499
lfoot -20.6155 25.369
ltoes 3.60196
338
root 10.4419 17.7918 -0.352708 -7.62626 -22.3113 -1.29681
lowerback 2.43891 -1.20378 -0.99925
upperback 4.53515 -1.63404 0.0572975
thorax 3.32481 -0.860857 0.60877
lowerneck -5.24125 -2.89043 -1.1265
upperneck 35.0944 -6.10848 4.50463
head 12.7123 -2.51184 1.16543
rclavicle -8.33343e-014 7.7526e-015
rhumerus -25.7424 45.5323 -69.2894
rradius 141.462
rwrist -35.6178
rhand -17.2382 21.8064
rfingers 7.12502
rthumb 9.00552 -7.98133
lclavicle -8.33343e-014 7.7526e-015
lhumerus -34.8411 17.0733 80.7447
lradius 36.4714
lwrist 31.7676
lhand -22.5473 23.2066
lfingers 7.12502
lthumb 3.88031 53.151
rfemur 4.67087 8.41412 20.0706
rtibia 15.8829
rfoot -9.19068 -8.82265
rtoes -3.49166
lfemur 7.07427 5.34637 -20.5518
ltibia 20.0497
lfoot -20.5078 25.3117
ltoes 3.3468
339
root 10.4461 17.7879 -0.351059 -7.70221 -22.472 -0.960259
lowerback 3.21501 -1.29957 -0.84755
upperback 4.10104 -1.76072 -0.311242
thorax 2.42505 -0.908015 0.172437
lowerneck -5.3029 -2.84876 -1.19168
upperneck 35.5903 -6.25115 4.94467
head 12.9702 -2.53049 1.33168
rclavicle -8.97016e-015 9.34288e-015
rhumerus -27.1286 45.783 -70.9301
rradius 140.926
rwrist -34.7018
rhand -16.7408 21.8287
rfingers 7.12502
rthumb 9.48542 -7.93778
lclavicle -8.97016e-015 9.34288e-015
lhumerus -35.6345 17.0971 80.0077
lradius 36.8529
lwrist 31.4562
lhand -22.5816 22.9166
lfingers 7.12502
lthumb 3.84715 52.8616
rfemur 4.3297 8.44994 19.6814
rtibia 16.4238
rfoot -9.55225 -8.55431
rtoes -3.30734
lfemur 7.18947 5.62168 -20.8833
ltibia 19.7496
lfoot -20.4458 25.326
ltoes 3.72796
340
root 10.4522 17.7866 -0.349218 -7.55466 -22.6541 -0.988142
lowerback 3.45744 -1.48847 -0.822504
upperback 3.98632 -2.01596 -0.263477
thorax 2.17431 -1.03475 0.219249
lowerneck -5.26649 -2.71271 -1.07237
upperneck 35.6075 -6.06755 4.88828
head 12.9552 -2.44504 1.31139
rclavicle -1.32689e-014 3.77691e-015
rhumerus -27.5191 46.1816 -71.3088
rradius 140.477
rwrist -34.3038
rhand -16.4384 21.8164
rfingers 7.12502
rthumb 9.77721 -7.93668
lclavicle -1.32689e-014 3.77691e-015
lhumerus -35.9185 17.431 79.8111
lradius 37.1734
lwrist 31.3947
lhand -21.7155 21.4347
lfingers 7.12502
lthumb 4.6835 51.363
rfemur 3.88847 8.45056 19.6545
rtibia 17.0033
rfoot -9.81154 -8.40495
rtoes -3.43377
lfemur 7.17836 5.8166 -20.8494
ltibia 19.4395
lfoot -19.9553 25.478
ltoes 3.75876
341
root 10.4602 17.7782 -0.351244 -7.57181 -22.7635 -0.784396
lowerback 3.51016 -1.62353 -1.13949
upperback 4.07767 -2.2041 -0.178374
thorax 2.25709 -1.13951 0.485772
lowerneck -5.54106 -2.67105 -0.741106
upperneck 35.7435 -5.91603 4.38305
head 13.0356 -2.38853 1.06949
rclavicle 2.77553e-014 2.98177e-015
rhumerus -27.5609 46.5429 -71.2255
rradius 139.96
rwrist -33.8327
rhand -16.4581 21.7274
rfingers 7.12502
rthumb 9.75817 -8.02649
lclavicle 2.77553e-014 2.98177e-015
lhumerus -35.7841 17.5405 80.0121
lradius 37.3381
lwrist 31.4324
lhand -21.3242 21.5881
lfingers 7.12502
lthumb 5.06136 51.5077
rfemur 3.68108 8.4949 19.4097
rtibia 17.2683
rfoot -9.90546 -8.34907
rtoes -3.41433
lfemur 7.13403 6.05811 -21.0539
ltibia 19.3609
lfoot -19.446 25.5907
ltoes 3.54121
342
root 10.4678 17.779 -0.357224 -7.62061 -22.9439 -0.6203
lowerback 3.62281 -1.5702 -1.14373
upperback 4.14986 -2.13447 -0.208242
thorax 2.26646 -1.10509 0.458707
lowerneck -5.91768 -2.82497 -0.712309
upperneck 36.1004 -6.11876 4.17983
head 13.2737 -2.486 0.953211
rclavicle -3.76448e-015 -5.96354e-016
rhumerus -28.1665 46.4422 -71.5607
rradius 139.404
rwrist -32.9587
rhand -16.4217 21.6489
rfingers 7.12502
rthumb 9.79333 -8.1034
lclavicle -3.76448e-015 -5.96354e-016
lhumerus -35.521 16.9146 80.3285
lradius 37.2329
lwrist 31.8442
lhand -21.3247 21.7447
lfingers 7.12502
lthumb 5.06087 51.6643
rfemur 3.54626 8.72549 19.2531
rtibia 17.3511
rfoot -9.93448 -8.38742
rtoes -3.06692
lfemur 7.08363 6.01339 -21.2968
ltibia 19.4084
lfoot -19.6879 25.8004
ltoes 4.14141
343
root 10.4782 17.7942 -0.359845 -7.47498 -23.1398 -0.751075
lowerback 3.73304 -1.50364 -0.68564
upperback 4.1186 -2.0374 -0.261549
thorax 2.15225 -1.04322 0.150838
lowerneck -5.46721 -2.93614 -0.981323
upperneck 35.8382 -6.40072 4.73054
head 13.1057 -2.59446 1.18877
rclavicle -2.11022e-014 7.95139e-016
rhumerus -29.5043 46.1353 -72.5226
rradius 138.791
rwrist -31.398
rhand -16.4509 21.9566
rfingers 7.12502
rthumb 9.76518 -7.79699
lclavicle -2.11022e-014 7.95139e-016
lhumerus -35.4561 16.1383 80.4762
lradius 37.199
lwrist 32.4162
lhand -20.9939 21.4171
lfingers 7.12502
lthumb 5.38022 51.3288
rfemur 3.30698 8.97878 19.3861
rtibia 17.4453
rfoot -9.84925 -8.48908
rtoes -2.25487
lfemur 6.96949 5.77978 -21.2624
ltibia 19.4231
lfoot -20.3502 25.9184
ltoes 4.81588
